<svg width="131" height="58" viewBox="0 0 131 58" fill="none" xmlns="http://www.w3.org/2000/svg">
<path d="M63.3841 20.0132V23.4634C63.1908 23.3892 62.9873 23.3445 62.7807 23.3308C62.6492 23.3295 62.519 23.3557 62.3983 23.4077C62.2775 23.4596 62.169 23.5362 62.0795 23.6325C61.9848 23.7284 61.9102 23.8423 61.8601 23.9674C61.81 24.0926 61.7855 24.2265 61.788 24.3613C61.8159 24.6907 61.9256 25.0078 62.1072 25.284L62.3813 25.7636C62.8779 26.6265 63.1266 27.4603 63.1276 28.2649C63.1378 28.8232 63.0313 29.3775 62.8149 29.8923C62.5986 30.4071 62.2771 30.8711 61.8711 31.2545C61.4689 31.6533 60.9907 31.9671 60.4649 32.1774C59.939 32.3878 59.3763 32.4903 58.8101 32.4789C58.2125 32.475 57.6233 32.3376 57.0857 32.0766V28.5783C57.3534 28.7713 57.6702 28.885 57.9996 28.9063C58.2853 28.9163 58.5647 28.8203 58.7838 28.6366C58.8844 28.5546 58.9651 28.4509 59.0198 28.3332C59.0746 28.2156 59.1021 28.0871 59.1001 27.9573C59.1001 27.7795 58.931 27.3932 58.5943 26.7912C58.0798 25.9323 57.8012 24.9528 57.7868 23.9517C57.7795 23.4025 57.8838 22.8575 58.0936 22.3499C58.3033 21.8422 58.614 21.3825 59.0068 20.9985C59.3809 20.6021 59.8331 20.2874 60.3349 20.0745C60.8366 19.8615 61.3771 19.7547 61.9221 19.761C62.4202 19.7624 62.9144 19.8476 63.3841 20.0132Z" fill="#F7941D"/>
<path d="M68.8139 20.0671V32.1758H65.212V20.0671H68.8139ZM75.7246 20.0671L72.5309 25.5581L75.7071 32.1758H71.6621L68.9203 25.4867L72.0251 20.0671H75.7246Z" fill="#F7941D"/>
<path d="M82.2008 23.5436V32.1758H78.599V23.5436H75.8397V20.0671H84.9514V23.5436H82.2008Z" fill="#F7941D"/>
<path d="M89.1202 25.6294V27.9791H85.0665V25.6294H89.1202Z" fill="#F7941D"/>
<path d="M95.6053 23.5436V32.1758H92.0035V23.5436H89.2456V20.0671H98.3559V23.5436H95.6053Z" fill="white"/>
<path d="M106.146 24.7768V27.4749H103.79C103.471 27.4749 103.245 27.5215 103.112 27.6206C103.042 27.6776 102.986 27.7513 102.951 27.835C102.916 27.9188 102.903 28.01 102.912 28.1002C102.912 28.3538 102.98 28.5215 103.117 28.6002C103.254 28.6789 103.531 28.7212 103.95 28.7212H106.371V32.1802H103.547C102.215 32.1802 101.198 31.8624 100.494 31.2269C99.7907 30.5913 99.4389 29.673 99.4389 28.4719V23.7214C99.4389 22.5621 99.7717 21.6633 100.437 21.0248C101.103 20.3864 102.039 20.0671 103.245 20.0671H106.376V23.5436H104.082C103.461 23.5436 103.15 23.7448 103.15 24.1471C103.139 24.2415 103.154 24.3371 103.193 24.4237C103.232 24.5104 103.294 24.585 103.372 24.6398C103.518 24.7321 103.782 24.7778 104.162 24.7768H106.146Z" fill="white"/>
<path d="M116.632 26.2589L120.403 26.3566C120.153 28.3088 119.477 29.8151 118.375 30.8753C117.273 31.9355 115.834 32.4675 114.059 32.4714C112.255 32.4714 110.745 31.8669 109.53 30.6581C108.315 29.4492 107.708 27.9483 107.707 26.1554C107.707 24.3509 108.326 22.8339 109.565 21.6047C110.804 20.3754 112.332 19.7602 114.148 19.7593C115.934 19.7593 117.424 20.3623 118.619 21.5682C119.447 22.402 120.03 23.5642 120.368 25.0549L116.509 25.3129C116.083 23.9913 115.266 23.3305 114.059 23.3305C113.703 23.3203 113.349 23.3863 113.021 23.5241C112.693 23.6618 112.397 23.8682 112.155 24.1293C111.649 24.682 111.379 25.4118 111.406 26.1612C111.379 26.8869 111.641 27.5937 112.135 28.1261C112.373 28.3799 112.662 28.5802 112.983 28.7139C113.304 28.8476 113.65 28.9116 113.998 28.9016C114.762 28.9016 115.369 28.6742 115.821 28.2194C116.273 27.7646 116.543 27.1111 116.632 26.2589Z" fill="white"/>
<path d="M126.71 24.3963V27.59H125.707V32.1758H122.105V20.0671H125.707V24.3963H126.71ZM130.924 20.0671V32.1758H127.322V20.0671H130.924Z" fill="white"/>
<path d="M57.071 35.3372H58.1803V38.7H58.5608V35.3372H59.6759V34.9961H57.071V35.3372Z" fill="white"/>
<path d="M61.2997 36.1301C61.0457 36.1229 60.7984 36.2119 60.6073 36.3794V34.9917H60.2415V38.6956H60.6073V37.1373C60.5952 36.9531 60.6559 36.7715 60.7764 36.6315C60.8423 36.5703 60.9199 36.5232 61.0047 36.4931C61.0894 36.463 61.1794 36.4506 61.2691 36.4566C61.3573 36.4501 61.4459 36.462 61.5292 36.4916C61.6125 36.5212 61.6888 36.5679 61.753 36.6286C61.8701 36.7712 61.9281 36.9533 61.9148 37.1373V38.6999H62.2807V37.0965C62.2881 36.9671 62.2687 36.8375 62.2238 36.7159C62.1789 36.5943 62.1095 36.4832 62.0198 36.3896C61.923 36.3007 61.8095 36.232 61.6858 36.1874C61.5622 36.1429 61.4309 36.1234 61.2997 36.1301Z" fill="white"/>
<path d="M64.078 36.1302C63.9299 36.1236 63.7824 36.1514 63.6468 36.2113C63.5113 36.2713 63.3915 36.3617 63.2967 36.4757C63.0971 36.7525 62.9993 37.0898 63.0198 37.4305C63.0198 37.8503 63.116 38.1738 63.3113 38.3954C63.4169 38.5098 63.5466 38.5993 63.6911 38.6573C63.8356 38.7153 63.9911 38.7403 64.1465 38.7307C64.2441 38.7314 64.3416 38.724 64.438 38.7088C64.5217 38.6938 64.6033 38.6693 64.6815 38.6359C64.7566 38.6019 64.8283 38.5609 64.8957 38.5135C64.9647 38.4627 65.0299 38.4072 65.0911 38.3473L65.1319 38.308L64.8549 38.0951L64.8243 38.1257C64.7365 38.2143 64.6339 38.2868 64.5211 38.34C64.4076 38.3871 64.2854 38.4094 64.1625 38.4056C64.0542 38.4149 63.9451 38.3989 63.844 38.3589C63.7428 38.319 63.6523 38.2561 63.5795 38.1753C63.444 37.9902 63.3756 37.7645 63.3856 37.5354H65.1348V37.3692C65.1541 37.0422 65.0547 36.7193 64.8549 36.4597C64.7584 36.35 64.6385 36.2634 64.504 36.2064C64.3695 36.1494 64.2239 36.1233 64.078 36.1302ZM63.7048 36.5588C63.8164 36.4923 63.9438 36.4572 64.0736 36.4572C64.2035 36.4572 64.3309 36.4923 64.4424 36.5588C64.5496 36.625 64.6336 36.7227 64.6829 36.8386C64.6985 36.8697 64.7117 36.9018 64.7223 36.9349C64.7326 36.9632 64.74 36.9925 64.7441 37.0223C64.7504 37.059 64.7548 37.096 64.7573 37.1331C64.7573 37.1622 64.7573 37.1943 64.7645 37.2293H63.3827C63.3827 37.1929 63.3827 37.1608 63.3929 37.1331C63.4031 37.1054 63.4031 37.0573 63.4089 37.0252C63.4128 36.9964 63.4196 36.9681 63.4293 36.9407L63.4658 36.8372C63.5146 36.7218 63.5981 36.6244 63.7048 36.5588Z" fill="white"/>
<path d="M68.8853 37.4392C68.81 37.3861 68.7255 37.3475 68.636 37.3255C68.5374 37.3003 68.4371 37.2827 68.3358 37.273L67.9276 37.238C67.7984 37.2348 67.6724 37.1965 67.5632 37.1272C67.5272 37.0971 67.4989 37.0587 67.4809 37.0153C67.4629 36.9719 67.4556 36.9248 67.4597 36.878C67.4559 36.8183 67.4672 36.7587 67.4927 36.7046C67.5182 36.6506 67.557 36.6039 67.6055 36.569C67.7395 36.4851 67.8967 36.4458 68.0544 36.4567C68.2955 36.4505 68.5325 36.5198 68.7322 36.655L68.7658 36.6797L69.0136 36.4378L68.9669 36.4028C68.8433 36.3142 68.7059 36.2467 68.5602 36.2031C68.3963 36.1535 68.2257 36.1289 68.0544 36.1302C67.809 36.1183 67.5666 36.188 67.365 36.3284C67.2799 36.391 67.2113 36.4733 67.1651 36.5683C67.1188 36.6633 67.0964 36.768 67.0997 36.8736C67.0997 37.2876 67.3708 37.5179 67.9028 37.5616L68.3212 37.5966C68.4427 37.6 68.5606 37.6385 68.6608 37.7074C68.6952 37.7389 68.7219 37.7779 68.7388 37.8214C68.7558 37.8648 68.7625 37.9116 68.7585 37.9581C68.7585 38.2584 68.5267 38.4056 68.0486 38.4056C67.9043 38.4143 67.7597 38.3936 67.6237 38.3447C67.4876 38.2959 67.3629 38.2199 67.2571 38.1214L67.2236 38.0864L66.967 38.3342L67.0064 38.3692C67.1388 38.4913 67.2952 38.5846 67.4656 38.6432C67.6571 38.7048 67.8576 38.7343 68.0588 38.7306C68.3301 38.7444 68.5991 38.6736 68.8284 38.528C68.9203 38.4648 68.995 38.3798 69.0459 38.2806C69.0968 38.1813 69.1222 38.071 69.12 37.9595C69.1232 37.8512 69.1018 37.7436 69.0573 37.6447C69.0174 37.5633 68.9584 37.4928 68.8853 37.4392Z" fill="white"/>
<path d="M72.9492 36.1944C72.8227 36.1504 72.6895 36.1287 72.5556 36.1303C72.3736 36.1272 72.1936 36.1682 72.0309 36.2498C71.8997 36.321 71.7862 36.4206 71.6985 36.5413C71.6236 36.423 71.5197 36.3257 71.3968 36.2586C71.2389 36.175 71.0623 36.1333 70.8837 36.1376C70.6279 36.1302 70.3787 36.2192 70.1855 36.3868V36.158H69.8269V38.6972H70.1928V37.1375C70.1806 36.9533 70.2414 36.7716 70.3619 36.6317C70.4277 36.5705 70.5054 36.5234 70.5901 36.4933C70.6748 36.4632 70.7648 36.4508 70.8545 36.4568C70.9427 36.4502 71.0313 36.4621 71.1147 36.4917C71.198 36.5214 71.2742 36.568 71.3385 36.6288C71.4561 36.7712 71.5146 36.9533 71.5017 37.1375V38.7001H71.8661V37.0967C71.8614 37.011 71.8747 36.9252 71.9051 36.8449C71.9354 36.7645 71.9823 36.6914 72.0425 36.6303C72.1756 36.5119 72.3501 36.4511 72.5279 36.4612C72.6163 36.4545 72.7052 36.4663 72.7888 36.4959C72.8724 36.5256 72.9488 36.5723 73.0133 36.6332C73.1296 36.7762 73.1875 36.958 73.1751 37.1419V38.7045H73.5395V37.1011C73.5471 36.9689 73.5263 36.8367 73.4786 36.7132C73.4308 36.5898 73.3572 36.478 73.2626 36.3854C73.1724 36.3008 73.0657 36.2357 72.9492 36.1944Z" fill="white"/>
<path d="M76.0059 36.3503C75.8411 36.2045 75.5802 36.1302 75.2304 36.1302C75.0477 36.1254 74.8656 36.153 74.6925 36.2118C74.5348 36.2765 74.3992 36.3853 74.3019 36.5252L74.2742 36.5616L74.5438 36.789L74.5759 36.7453C74.6398 36.6502 74.7279 36.5737 74.831 36.5237C74.9579 36.4733 75.094 36.4504 75.2304 36.4567C75.4145 36.4377 75.5992 36.487 75.7493 36.5952C75.8003 36.6498 75.8396 36.7144 75.8647 36.7848C75.8897 36.8553 75.9001 36.9301 75.8951 37.0048V37.2292H75.1284C74.8873 37.2157 74.6488 37.2846 74.452 37.4246C74.3689 37.4911 74.3028 37.5764 74.2589 37.6734C74.2151 37.7705 74.1949 37.8765 74.1998 37.9828C74.2 38.0788 74.2168 38.1739 74.2494 38.2642C74.2805 38.3503 74.3303 38.4284 74.3952 38.493C74.4813 38.5807 74.5888 38.6445 74.7071 38.6781C74.8594 38.7172 75.0164 38.7349 75.1735 38.7306C75.3264 38.7345 75.4789 38.7143 75.6254 38.6708C75.7229 38.6355 75.8136 38.5837 75.8936 38.5178V38.7H76.258V36.98C76.265 36.8629 76.246 36.7458 76.2024 36.6369C76.1588 36.5281 76.0917 36.4302 76.0059 36.3503ZM75.1735 38.4056C75.0088 38.4191 74.8438 38.3814 74.7013 38.2977C74.6522 38.261 74.6131 38.2125 74.5876 38.1567C74.5621 38.1009 74.5511 38.0396 74.5555 37.9785C74.5555 37.6796 74.7508 37.5412 75.1502 37.5412H75.879V37.8065C75.8893 37.8842 75.8833 37.9631 75.8615 38.0384C75.8396 38.1137 75.8024 38.1836 75.7522 38.2438C75.6785 38.3177 75.5848 38.3684 75.4826 38.3895C75.3803 38.4044 75.2768 38.4097 75.1735 38.4056Z" fill="white"/>
<path d="M78.551 36.1844C78.4406 36.1474 78.3248 36.1292 78.2084 36.1304C78.054 36.1297 77.9013 36.1625 77.7609 36.2266C77.6704 36.2662 77.5883 36.3225 77.519 36.3928V36.1581H77.1545V38.6973H77.519V37.1479C77.5188 37.0573 77.533 36.9672 77.5612 36.8811C77.5877 36.8014 77.6287 36.7273 77.6822 36.6625C77.7389 36.5957 77.8098 36.5426 77.8898 36.507C77.9698 36.4714 78.0568 36.4543 78.1443 36.4569C78.2266 36.4544 78.3086 36.4673 78.3862 36.4948C78.4619 36.5295 78.5299 36.5791 78.5859 36.6406L78.6209 36.6741L78.8848 36.4176L78.8483 36.3826C78.7649 36.2955 78.6634 36.2278 78.551 36.1844Z" fill="white"/>
<path d="M79.7213 35.3809H79.3569V36.1578H79.01V36.4493H79.3555V38.0104C79.3491 38.1885 79.4082 38.3628 79.5216 38.5002C79.5833 38.5676 79.6593 38.6203 79.7441 38.6544C79.8289 38.6885 79.9202 38.703 80.0114 38.697H80.2898V38.3734H80.0595C80.0129 38.3779 79.9658 38.3722 79.9216 38.3569C79.8773 38.3415 79.8368 38.3168 79.803 38.2845C79.7442 38.209 79.7152 38.1146 79.7213 38.0192V36.4493H80.2913V36.1578H79.7213V35.3809Z" fill="white"/>
<path d="M84.345 36.1608H83.8727L82.692 37.461V34.9961H82.3276V38.7H82.692V37.9711L83.2124 37.3895L84.0608 38.7H84.5083L83.4646 37.1272L84.345 36.1608Z" fill="white"/>
<path d="M85.9601 36.1302C85.812 36.1236 85.6645 36.1514 85.5289 36.2113C85.3934 36.2713 85.2735 36.3617 85.1788 36.4757C84.9792 36.7525 84.8814 37.0898 84.9018 37.4305C84.9018 37.8503 84.998 38.1738 85.1934 38.3954C85.2989 38.5098 85.4287 38.5993 85.5732 38.6573C85.7176 38.7153 85.8732 38.7403 86.0286 38.7307C86.1262 38.7314 86.2237 38.724 86.3201 38.7088C86.4038 38.6938 86.4854 38.6693 86.5635 38.6359C86.6384 38.6023 86.7097 38.5612 86.7764 38.5135C86.8461 38.4631 86.9118 38.4076 86.9731 38.3473L87.014 38.308L86.737 38.0951L86.7064 38.1257C86.6186 38.2143 86.516 38.2868 86.4032 38.34C86.2897 38.3871 86.1675 38.4094 86.0446 38.4056C85.9363 38.4149 85.8272 38.3989 85.7261 38.3589C85.6249 38.319 85.5344 38.2561 85.4616 38.1753C85.3261 37.9902 85.2577 37.7645 85.2677 37.5354H87.0169V37.3692C87.0362 37.0422 86.9368 36.7193 86.737 36.4597C86.6405 36.35 86.5206 36.2634 86.3861 36.2064C86.2516 36.1494 86.106 36.1233 85.9601 36.1302ZM85.5913 36.5588C85.7028 36.4923 85.8302 36.4572 85.9601 36.4572C86.0899 36.4572 86.2173 36.4923 86.3289 36.5588C86.436 36.625 86.5201 36.7227 86.5694 36.8386C86.585 36.8697 86.5981 36.9018 86.6087 36.9349C86.6191 36.9632 86.6264 36.9925 86.6306 37.0223C86.6368 37.059 86.6412 37.096 86.6437 37.1331C86.6437 37.1622 86.6437 37.1943 86.6437 37.2293H85.2779C85.279 37.1971 85.2819 37.165 85.2867 37.1331C85.2867 37.0937 85.2969 37.0573 85.3027 37.0252C85.3072 36.9965 85.3141 36.9683 85.3231 36.9407L85.3581 36.8372C85.4059 36.723 85.4873 36.6259 85.5913 36.5588Z" fill="white"/>
<path d="M88.3987 38.1987L87.6699 36.158H87.2749L88.2151 38.6491L88.0168 39.1753C87.9999 39.2257 87.9785 39.2745 87.9527 39.321C87.9334 39.3553 87.9076 39.3855 87.8769 39.41C87.8458 39.4336 87.81 39.4505 87.772 39.4595C87.7164 39.4711 87.6597 39.4765 87.6029 39.4756H87.4571V39.8021H87.632C87.7222 39.8019 87.8119 39.7897 87.8988 39.7656C87.9879 39.7409 88.0702 39.696 88.1393 39.6344C88.2277 39.5513 88.2926 39.4462 88.3273 39.3298L89.5211 36.158H89.1217L88.3987 38.1987Z" fill="white"/>
<path d="M91.5603 35.1931C91.4464 35.3304 91.3868 35.5046 91.3927 35.6829V36.1581H91.0487V36.4496H91.4V38.6973H91.7659V36.4496H92.3358V36.1581H91.7659V35.6756C91.7597 35.5797 91.7887 35.4849 91.8475 35.4089C91.8814 35.3765 91.9218 35.3518 91.9661 35.3365C92.0104 35.3211 92.0574 35.3155 92.104 35.3199H92.3358V34.992H92.0559C91.9635 34.9855 91.8707 35.0002 91.7848 35.0351C91.6989 35.07 91.6221 35.124 91.5603 35.1931Z" fill="white"/>
<path d="M94.4743 36.4131C94.2726 36.2311 94.0106 36.1304 93.7389 36.1304C93.4672 36.1304 93.2052 36.2311 93.0035 36.4131C92.8676 36.543 92.7737 36.7105 92.7339 36.8942C92.6561 37.248 92.6561 37.6146 92.7339 37.9684C92.7744 38.1519 92.8682 38.3192 93.0035 38.4495C93.2056 38.6306 93.4675 38.7307 93.7389 38.7307C94.0103 38.7307 94.2722 38.6306 94.4743 38.4495C94.6101 38.3193 94.7044 38.152 94.7454 37.9684C94.8232 37.6146 94.8232 37.248 94.7454 36.8942C94.705 36.7104 94.6106 36.5428 94.4743 36.4131ZM93.7455 38.4057C93.655 38.4079 93.565 38.3919 93.4809 38.3586C93.3967 38.3253 93.3202 38.2754 93.2557 38.2119C93.2091 38.1666 93.1711 38.1133 93.1435 38.0544C93.1151 37.9918 93.0936 37.9263 93.0793 37.8591C93.0636 37.7892 93.0543 37.7179 93.0516 37.6463C93.0516 37.5734 93.0516 37.5005 93.0516 37.4306C93.0516 37.3606 93.0516 37.2848 93.0516 37.2148C93.0544 37.1437 93.0637 37.0729 93.0793 37.0035C93.0936 36.9363 93.1151 36.8708 93.1435 36.8082C93.1716 36.7496 93.2095 36.6964 93.2557 36.6507C93.3881 36.5263 93.563 36.4571 93.7447 36.4571C93.9264 36.4571 94.1013 36.5263 94.2338 36.6507C94.2808 36.6956 94.3189 36.749 94.346 36.8082C94.3748 36.8707 94.3968 36.9362 94.4116 37.0035C94.4261 37.0731 94.4348 37.1438 94.4378 37.2148C94.4378 37.2892 94.4378 37.3606 94.4378 37.4306C94.4378 37.5005 94.4378 37.5763 94.4378 37.6463C94.4349 37.7178 94.4261 37.789 94.4116 37.8591C94.3968 37.9264 94.3748 37.9919 94.346 38.0544C94.3189 38.1136 94.2808 38.167 94.2338 38.2119C94.1689 38.276 94.0916 38.3263 94.0067 38.3597C93.9217 38.393 93.8308 38.4087 93.7396 38.4057H93.7455Z" fill="white"/>
<path d="M96.9697 36.1844C96.8593 36.1474 96.7435 36.1292 96.6271 36.1304C96.4727 36.1297 96.32 36.1625 96.1796 36.2266C96.0893 36.2665 96.0073 36.3229 95.9377 36.3928V36.1581H95.5732V38.6973H95.9377V37.1479C95.9375 37.0573 95.9517 36.9672 95.9799 36.8811C96.0064 36.8014 96.0474 36.7273 96.1009 36.6625C96.1577 36.5955 96.2289 36.5423 96.3092 36.5067C96.3894 36.4711 96.4767 36.4541 96.5644 36.4569C96.6463 36.4546 96.7278 36.4674 96.805 36.4948C96.8809 36.5298 96.9492 36.5793 97.0061 36.6406L97.0396 36.6741L97.3035 36.4176L97.267 36.3826C97.1839 36.2952 97.0823 36.2275 96.9697 36.1844Z" fill="white"/>
<path d="M99.4754 35.3809H99.1095V36.1578H98.764V36.4493H99.1095V38.0104C99.1032 38.1885 99.1623 38.3628 99.2757 38.5002C99.3374 38.5676 99.4134 38.6202 99.4982 38.6542C99.583 38.6883 99.6743 38.7029 99.7654 38.697H100.045V38.3734H99.8121C99.7655 38.3777 99.7185 38.3719 99.6742 38.3566C99.63 38.3413 99.5895 38.3167 99.5555 38.2845C99.4973 38.2088 99.4688 38.1144 99.4754 38.0192V36.4493H100.045V36.1578H99.4754V35.3809Z" fill="white"/>
<path d="M102.144 36.1844C102.033 36.1475 101.917 36.1293 101.8 36.1304C101.646 36.1298 101.493 36.1627 101.353 36.2266C101.263 36.2665 101.181 36.3229 101.112 36.3928V36.1581H100.746V38.6973H101.112V37.1479C101.111 37.0572 101.126 36.967 101.155 36.8811C101.18 36.8009 101.221 36.7265 101.276 36.6625C101.33 36.6011 101.397 36.5515 101.471 36.5167C101.555 36.4786 101.646 36.4597 101.738 36.4613C101.819 36.4588 101.901 36.4716 101.978 36.4992C102.054 36.5338 102.123 36.5834 102.179 36.645L102.213 36.6785L102.478 36.422L102.442 36.387C102.359 36.2986 102.257 36.2294 102.144 36.1844Z" fill="white"/>
<path d="M104.428 36.3501C104.262 36.2043 104.001 36.13 103.653 36.13C103.47 36.1249 103.288 36.1525 103.115 36.2116C102.957 36.2758 102.821 36.3847 102.724 36.525L102.695 36.5615L102.965 36.7889L102.997 36.7451C103.061 36.65 103.149 36.5735 103.252 36.5236C103.379 36.4729 103.516 36.45 103.653 36.4565C103.837 36.4377 104.021 36.487 104.17 36.595C104.221 36.6497 104.261 36.7142 104.286 36.7847C104.311 36.8551 104.321 36.93 104.316 37.0046V37.2291H103.549C103.308 37.2158 103.069 37.2846 102.872 37.4244C102.789 37.4913 102.723 37.5766 102.68 37.6736C102.636 37.7706 102.616 37.8765 102.621 37.9827C102.621 38.0786 102.638 38.1738 102.671 38.264C102.702 38.3498 102.752 38.4279 102.816 38.4928C102.902 38.5806 103.01 38.6444 103.128 38.678C103.281 38.717 103.438 38.7347 103.595 38.7304C103.748 38.7343 103.901 38.7142 104.048 38.6707C104.145 38.6349 104.235 38.5832 104.315 38.5176V38.6998H104.679V36.9798C104.686 36.8629 104.667 36.7459 104.624 36.6371C104.58 36.5283 104.514 36.4303 104.428 36.3501ZM103.595 38.4054C103.43 38.4189 103.265 38.3812 103.122 38.2975C103.075 38.2599 103.037 38.211 103.013 38.1553C102.989 38.0995 102.98 38.0387 102.985 37.9783C102.985 37.6795 103.179 37.541 103.579 37.541H104.315V37.8063C104.325 37.8839 104.319 37.9627 104.297 38.0379C104.276 38.1131 104.239 38.1831 104.189 38.2436C104.115 38.317 104.021 38.3676 103.918 38.3893C103.811 38.4051 103.703 38.4105 103.595 38.4054Z" fill="white"/>
<path d="M106.634 36.1302C106.38 36.1239 106.132 36.2128 105.94 36.3794V36.1579H105.576V38.6971H105.94V37.1374C105.928 36.953 105.99 36.7714 106.111 36.6316C106.176 36.5703 106.254 36.5232 106.339 36.4931C106.423 36.463 106.513 36.4506 106.603 36.4567C106.691 36.4501 106.78 36.462 106.863 36.4916C106.947 36.5212 107.023 36.5679 107.087 36.6287C107.204 36.7713 107.262 36.9534 107.249 37.1374V38.7H107.615V37.0966C107.622 36.9645 107.601 36.8323 107.553 36.7089C107.506 36.5855 107.432 36.4737 107.338 36.3809C107.145 36.2084 106.892 36.1184 106.634 36.1302Z" fill="white"/>
<path d="M110.15 37.4392C110.074 37.3861 109.99 37.3476 109.9 37.3255C109.801 37.3005 109.7 37.2829 109.599 37.273L109.191 37.2381C109.062 37.2347 108.936 37.1964 108.828 37.1273C108.792 37.0972 108.763 37.0588 108.745 37.0154C108.727 36.972 108.72 36.9248 108.724 36.878C108.72 36.8184 108.732 36.7588 108.757 36.7048C108.783 36.6508 108.822 36.604 108.87 36.569C109.004 36.4855 109.161 36.4463 109.319 36.4568C109.56 36.45 109.797 36.5194 109.997 36.655L110.03 36.6798L110.279 36.4378L110.233 36.4028C110.109 36.3142 109.972 36.2468 109.826 36.2031C109.662 36.1535 109.491 36.1289 109.319 36.1303C109.074 36.1181 108.832 36.1879 108.631 36.3285C108.546 36.3911 108.477 36.4734 108.431 36.5683C108.385 36.6633 108.362 36.7681 108.366 36.8737C108.366 37.2876 108.635 37.5179 109.169 37.5617L109.586 37.5966C109.707 37.5998 109.825 37.6383 109.925 37.7074C109.96 37.7389 109.986 37.7779 110.003 37.8214C110.02 37.8649 110.027 37.9117 110.023 37.9581C110.023 38.2584 109.791 38.4056 109.314 38.4056C109.17 38.4146 109.026 38.394 108.889 38.3451C108.753 38.2963 108.629 38.2201 108.523 38.1214L108.488 38.0864L108.233 38.3342L108.271 38.3692C108.404 38.4907 108.56 38.584 108.73 38.6432C108.922 38.7047 109.123 38.7343 109.325 38.7307C109.596 38.7449 109.864 38.674 110.093 38.5281C110.185 38.4651 110.26 38.3802 110.311 38.2809C110.362 38.1816 110.387 38.0711 110.384 37.9596C110.388 37.8512 110.367 37.7434 110.322 37.6447C110.282 37.5633 110.223 37.4927 110.15 37.4392Z" fill="white"/>
<path d="M112.8 36.3576C112.72 36.2831 112.626 36.2264 112.523 36.1914C112.402 36.1492 112.276 36.1285 112.148 36.1302C112.006 36.1288 111.865 36.1519 111.731 36.1987C111.624 36.2415 111.527 36.3077 111.448 36.3926V36.1579H111.078V39.8633H111.443V38.4654C111.521 38.5509 111.618 38.6172 111.725 38.6592C111.859 38.706 112 38.7292 112.142 38.7277C112.27 38.7292 112.396 38.709 112.517 38.668C112.62 38.6318 112.714 38.5753 112.794 38.5018C112.93 38.367 113.025 38.196 113.066 38.0091C113.155 37.6254 113.155 37.2267 113.066 36.843C113.025 36.6592 112.933 36.4909 112.8 36.3576ZM112.773 37.4304C112.774 37.5538 112.766 37.677 112.75 37.7992C112.738 37.9076 112.706 38.0128 112.655 38.1097C112.61 38.1977 112.541 38.2718 112.457 38.324C112.351 38.383 112.231 38.4112 112.11 38.4056C111.99 38.4111 111.871 38.3828 111.766 38.324C111.681 38.2722 111.612 38.1981 111.567 38.1097C111.516 38.0128 111.484 37.9076 111.472 37.7992C111.457 37.6769 111.449 37.5537 111.448 37.4304C111.449 37.3081 111.457 37.186 111.472 37.0646C111.485 36.9558 111.517 36.8502 111.567 36.7526C111.612 36.6643 111.681 36.5901 111.766 36.5384C111.871 36.4795 111.99 36.4513 112.11 36.4567C112.231 36.4511 112.351 36.4794 112.457 36.5384C112.542 36.5902 112.61 36.6644 112.655 36.7526C112.706 36.85 112.738 36.9557 112.75 37.0646C112.766 37.1859 112.774 37.3081 112.773 37.4304Z" fill="white"/>
<path d="M115.562 36.4131C115.36 36.2311 115.098 36.1304 114.827 36.1304C114.555 36.1304 114.293 36.2311 114.091 36.4131C113.955 36.5426 113.861 36.7103 113.821 36.8942C113.742 37.2478 113.742 37.6148 113.821 37.9684C113.861 38.1521 113.955 38.3196 114.091 38.4495C114.293 38.6306 114.555 38.7307 114.827 38.7307C115.098 38.7307 115.36 38.6306 115.562 38.4495C115.697 38.3192 115.791 38.1519 115.832 37.9684C115.909 37.6146 115.909 37.248 115.832 36.8942C115.792 36.7105 115.698 36.543 115.562 36.4131ZM114.833 38.4057C114.743 38.4079 114.653 38.3918 114.569 38.3585C114.485 38.3252 114.409 38.2753 114.345 38.2119C114.298 38.167 114.26 38.1136 114.233 38.0544C114.204 37.9916 114.182 37.9262 114.167 37.8591C114.153 37.7889 114.143 37.7178 114.139 37.6463C114.139 37.5734 114.139 37.5005 114.139 37.4306C114.139 37.3606 114.139 37.2848 114.139 37.2148C114.143 37.1438 114.153 37.0732 114.167 37.0035C114.182 36.9364 114.204 36.871 114.233 36.8082C114.26 36.749 114.298 36.6956 114.345 36.6507C114.477 36.5263 114.652 36.4571 114.834 36.4571C115.016 36.4571 115.19 36.5263 115.323 36.6507C115.369 36.6964 115.407 36.7496 115.435 36.8082C115.463 36.8708 115.485 36.9363 115.499 37.0035C115.514 37.0731 115.523 37.1438 115.527 37.2148C115.527 37.2892 115.527 37.3606 115.527 37.4306C115.527 37.5005 115.527 37.5763 115.527 37.6463C115.524 37.7179 115.514 37.7891 115.499 37.8591C115.485 37.9263 115.463 37.9918 115.435 38.0544C115.407 38.113 115.369 38.1662 115.323 38.2119C115.257 38.2761 115.18 38.3264 115.094 38.3598C115.009 38.3931 114.917 38.4087 114.826 38.4057H114.833Z" fill="white"/>
<path d="M118.057 36.1844C117.947 36.1474 117.83 36.1292 117.713 36.1304C117.56 36.1298 117.407 36.1627 117.267 36.2266C117.177 36.2662 117.095 36.3225 117.025 36.3928V36.1581H116.66V38.6973H117.025V37.1479C117.025 37.0573 117.039 36.9672 117.068 36.8811C117.094 36.8011 117.135 36.7269 117.189 36.6625C117.243 36.6008 117.31 36.5511 117.385 36.5167C117.469 36.4787 117.559 36.4597 117.651 36.4613C117.733 36.4588 117.814 36.4717 117.891 36.4992C117.968 36.5334 118.036 36.5831 118.092 36.645L118.127 36.6785L118.391 36.422L118.355 36.387C118.272 36.2983 118.17 36.2291 118.057 36.1844Z" fill="white"/>
<path d="M119.228 35.3809H118.862V36.1578H118.512V36.4493H118.858V38.0104C118.851 38.1885 118.91 38.3628 119.024 38.5002C119.086 38.5676 119.162 38.6202 119.246 38.6542C119.331 38.6883 119.422 38.7029 119.514 38.697H119.793V38.3734H119.562C119.515 38.3779 119.468 38.3722 119.424 38.3569C119.379 38.3415 119.339 38.3168 119.305 38.2845C119.246 38.209 119.217 38.1146 119.224 38.0192V36.4493H119.793V36.1578H119.224L119.228 35.3809Z" fill="white"/>
<path d="M122.078 36.3503C121.913 36.2045 121.652 36.1302 121.302 36.1302C121.119 36.1253 120.937 36.1529 120.764 36.2118C120.607 36.2765 120.471 36.3853 120.374 36.5252L120.346 36.5617L120.616 36.789L120.646 36.7453C120.711 36.6508 120.799 36.5745 120.901 36.5238C121.029 36.4734 121.165 36.4505 121.302 36.4567C121.486 36.4377 121.67 36.487 121.82 36.5952C121.871 36.6497 121.91 36.7142 121.935 36.7847C121.96 36.8552 121.971 36.9301 121.965 37.0048V37.2293H121.199C120.957 37.2155 120.718 37.2844 120.521 37.4246C120.438 37.4915 120.372 37.5768 120.329 37.6738C120.285 37.7708 120.265 37.8767 120.27 37.9829C120.27 38.0788 120.286 38.1741 120.32 38.2642C120.35 38.3506 120.4 38.4288 120.465 38.493C120.552 38.5808 120.659 38.6446 120.777 38.6782C120.93 38.7173 121.087 38.735 121.244 38.7306C121.397 38.7345 121.549 38.7144 121.696 38.6709C121.793 38.6352 121.884 38.5834 121.964 38.5178V38.7H122.328V36.98C122.335 36.8631 122.317 36.746 122.273 36.6371C122.23 36.5283 122.163 36.4303 122.078 36.3503ZM121.245 38.4056C121.08 38.4191 120.915 38.3814 120.772 38.2977C120.724 38.2598 120.687 38.2109 120.663 38.1552C120.639 38.0996 120.629 38.0389 120.635 37.9785C120.635 37.6797 120.83 37.5412 121.229 37.5412H121.965V37.8065C121.976 37.8842 121.97 37.9632 121.948 38.0384C121.926 38.1137 121.889 38.1836 121.839 38.2438C121.764 38.3177 121.67 38.3684 121.567 38.3895C121.461 38.4054 121.353 38.4107 121.245 38.4056Z" fill="white"/>
<path d="M123.653 35.3809H123.289V36.1578H122.943V36.4493H123.289V38.0104C123.282 38.1883 123.341 38.3626 123.454 38.5002C123.515 38.5677 123.592 38.6204 123.677 38.6544C123.762 38.6885 123.853 38.703 123.945 38.697H124.223V38.3734H123.991C123.945 38.3778 123.898 38.3721 123.853 38.3567C123.809 38.3414 123.769 38.3168 123.735 38.2845C123.676 38.209 123.647 38.1146 123.653 38.0192V36.4493H124.223V36.1578H123.653V35.3809Z" fill="white"/>
<path d="M125.322 34.9961H124.894V35.413H125.322V34.9961Z" fill="white"/>
<path d="M125.292 36.1606H124.926V38.6999H125.292V36.1606Z" fill="white"/>
<path d="M127.86 36.4131C127.658 36.2311 127.396 36.1304 127.125 36.1304C126.853 36.1304 126.591 36.2311 126.389 36.4131C126.253 36.5426 126.159 36.7103 126.12 36.8942C126.042 37.248 126.042 37.6146 126.12 37.9684C126.159 38.1521 126.253 38.3196 126.389 38.4495C126.591 38.6306 126.853 38.7307 127.125 38.7307C127.396 38.7307 127.658 38.6306 127.86 38.4495C127.996 38.3196 128.09 38.1521 128.13 37.9684C128.209 37.6148 128.209 37.2478 128.13 36.8942C128.09 36.7103 127.996 36.5426 127.86 36.4131ZM127.131 38.4057C127.041 38.408 126.951 38.392 126.867 38.3587C126.782 38.3254 126.706 38.2754 126.641 38.2119C126.595 38.1662 126.557 38.1123 126.529 38.053C126.501 37.9904 126.479 37.9249 126.465 37.8577C126.449 37.7877 126.44 37.7165 126.437 37.6449C126.437 37.572 126.437 37.4991 126.437 37.4291C126.437 37.3592 126.437 37.2834 126.437 37.2134C126.44 37.1422 126.449 37.0715 126.465 37.002C126.479 36.9348 126.501 36.8693 126.529 36.8067C126.557 36.7479 126.595 36.6945 126.641 36.6493C126.774 36.5249 126.949 36.4556 127.13 36.4556C127.312 36.4556 127.487 36.5249 127.62 36.6493C127.667 36.6941 127.705 36.7476 127.732 36.8067C127.761 36.8693 127.783 36.9348 127.797 37.002C127.812 37.0717 127.821 37.1423 127.824 37.2134C127.824 37.2877 127.824 37.3592 127.824 37.4291C127.824 37.4991 127.824 37.5749 127.824 37.6449C127.821 37.7164 127.812 37.7876 127.797 37.8577C127.783 37.9249 127.761 37.9904 127.732 38.053C127.705 38.1121 127.667 38.1655 127.62 38.2104C127.555 38.2749 127.478 38.3254 127.393 38.359C127.308 38.3926 127.217 38.4085 127.125 38.4057H127.131Z" fill="white"/>
<path d="M130.721 36.3767C130.528 36.2058 130.275 36.1174 130.017 36.1304C129.763 36.1231 129.515 36.2121 129.324 36.3797V36.1581H128.959V38.6973H129.324V37.1376C129.311 36.9534 129.372 36.7717 129.493 36.6318C129.559 36.5706 129.637 36.5236 129.722 36.4935C129.807 36.4634 129.897 36.451 129.987 36.4569C130.075 36.4503 130.164 36.4622 130.247 36.4919C130.33 36.5215 130.406 36.5682 130.471 36.6289C130.588 36.7715 130.646 36.9536 130.632 37.1376V38.7002H130.998V37.0968C131.006 36.964 130.986 36.831 130.938 36.7068C130.89 36.5826 130.816 36.47 130.721 36.3767Z" fill="white"/>
<path d="M44.598 32.8681C42.8523 32.8664 41.1763 33.553 39.9336 34.7791L32.0623 30.2342C32.4299 28.8256 32.325 27.3354 31.7638 25.9922C31.2026 24.649 30.216 23.5271 28.9556 22.7989C27.6952 22.0706 26.2305 21.7761 24.7865 21.9607C23.3426 22.1452 21.9991 22.7986 20.9624 23.8205L13.0911 19.2756C13.3729 18.1793 13.3729 17.0295 13.0911 15.9332L20.9624 11.3883C22.2059 12.6132 23.8813 13.2998 25.6268 13.2998C27.3723 13.2998 29.0477 12.6132 30.2913 11.3883L38.1625 15.9332C37.8138 17.2759 37.8936 18.694 38.3909 19.989C38.8882 21.284 39.7781 22.3911 40.9359 23.1552C42.0937 23.9193 43.4615 24.3022 44.8477 24.2502C46.234 24.1983 47.5693 23.7141 48.6666 22.8655C49.764 22.0169 50.5685 20.8463 50.9675 19.5177C51.3665 18.1891 51.34 16.769 50.8917 15.4562C50.4434 14.1434 49.5957 13.0037 48.4674 12.1966C47.3391 11.3896 45.9867 10.9556 44.5995 10.9554C42.8538 10.9537 41.1778 11.6403 39.935 12.8664L32.0638 8.32142C32.3191 7.33837 32.3458 6.30988 32.1419 5.31488C31.9381 4.31988 31.509 3.3848 30.8876 2.5814C30.2662 1.77799 29.469 1.1276 28.5572 0.680131C27.6454 0.23266 26.6432 0 25.6275 0C24.6119 0 23.6097 0.23266 22.6979 0.680131C21.7861 1.1276 20.9889 1.77799 20.3675 2.5814C19.7461 3.3848 19.317 4.31988 19.1131 5.31488C18.9093 6.30988 18.936 7.33837 19.1913 8.32142L11.3201 12.8664C10.3862 11.9469 9.20147 11.3239 7.91466 11.0757C6.62785 10.8275 5.29639 10.9652 4.08758 11.4714C2.87876 11.9776 1.84652 12.8297 1.12054 13.9208C0.394561 15.0119 0.00723931 16.2932 0.00723931 17.6037C0.00723931 18.9142 0.394561 20.1955 1.12054 21.2866C1.84652 22.3777 2.87876 23.2298 4.08758 23.736C5.29639 24.2422 6.62785 24.3799 7.91466 24.1317C9.20147 23.8835 10.3862 23.2605 11.3201 22.341L19.1913 26.886C18.8237 28.2945 18.9286 29.7848 19.4898 31.1279C20.051 32.4711 21.0376 33.593 22.298 34.3213C23.5585 35.0496 25.0231 35.344 26.4671 35.1595C27.9111 34.9749 29.2545 34.3215 30.2913 33.2996L38.1625 37.846C37.8807 38.9423 37.8807 40.092 38.1625 41.1884L30.2913 45.7333C29.0483 44.5073 27.3726 43.82 25.6268 43.82C23.881 43.82 22.2053 44.5073 20.9624 45.7333L13.0911 41.1884C13.2318 40.6402 13.3028 40.0765 13.3024 39.5106C13.3031 37.9739 12.7716 36.4845 11.7983 35.2953C10.8251 34.1061 9.4701 33.2907 7.96365 32.9874C6.4572 32.6842 4.89224 32.912 3.5347 33.632C2.17717 34.352 1.11083 35.5199 0.516897 36.9371C-0.0770365 38.3544 -0.161917 39.9336 0.276679 41.4063C0.715275 42.879 1.65029 44.1545 2.92282 45.0159C4.19535 45.8773 5.72689 46.2715 7.25716 46.1315C8.78743 45.9915 10.222 45.3259 11.3171 44.2479L19.1884 48.7929C18.9341 49.7755 18.9081 50.8033 19.1125 51.7974C19.3169 52.7916 19.7462 53.7258 20.3675 54.5284C20.9888 55.331 21.7856 55.9807 22.6969 56.4277C23.6081 56.8746 24.6096 57.107 25.6246 57.107C26.6396 57.107 27.6411 56.8746 28.5524 56.4277C29.4636 55.9807 30.2605 55.331 30.8818 54.5284C31.5031 53.7258 31.9324 52.7916 32.1368 51.7974C32.3411 50.8033 32.3152 49.7755 32.0608 48.7929L39.9321 44.2479C40.7096 45.0135 41.6636 45.5759 42.7099 45.8856C43.7562 46.1952 44.8626 46.2426 45.9315 46.0235C47.0004 45.8044 47.999 45.3256 48.8391 44.6293C49.6792 43.933 50.335 43.0407 50.7487 42.031C51.1623 41.0213 51.3211 39.9253 51.211 38.8397C51.1009 37.7541 50.7253 36.7123 50.1173 35.8063C49.5093 34.9002 48.6877 34.1577 47.7249 33.6443C46.7621 33.1308 45.6877 32.8623 44.5966 32.8623L44.598 32.8681Z" fill="white"/>
</svg>
